# xmcd
#
# Track frame offsets: 
#        150
#        12343
#        23621
#        40122
#        56418
#        74576
#        88553
#        104926
#        120106
#        132909
#
# Disc length: 2037 seconds
#
# Revision: 0
# Processed by: cddbd v1.5.2PL0 Copyright (c) Steve Scherf et al.
# Submitted via: ExactAudioCopy v0.99pb4
#
DISCID=7e07f30a
DTITLE=John Hammond - Vanguard Visionaries, John Hammond
DYEAR=2007
DGENRE=Blues
TTITLE0=Big Boss Man
TTITLE1=Seventh Son
TTITLE2=Statesborough Blues
TTITLE3=Hellbound Blues
TTITLE4=I Wish You Would
TTITLE5=30-20 Blues
TTITLE6=Guitar King
TTITLE7=Two Trains Running
TTITLE8=I'm Ready
TTITLE9=Sweet Home Chicago
EXTD=
EXTT0=
EXTT1=
EXTT2=
EXTT3=
EXTT4=
EXTT5=
EXTT6=
EXTT7=
EXTT8=
EXTT9=
PLAYORDER=
